<svg xmlns="http://www.w3.org/2000/svg" xmlns:xlink="http://www.w3.org/1999/xlink" width="400" height="400" viewBox="0 0 400 400"><defs><linearGradient id="gradient-19"><stop stop-color="#905e25" offset="0"/><stop stop-color="#f5ec8b" offset="0.5"/><stop stop-color="#905e36" offset="1"/></linearGradient></defs>
<rect data-name="background" width="100%" height="100%" fill="#080808"/><g data-name="container" data="container_num:1" fill="url(#gradient-19)" transform="translate(13.886110442145053, 159.1296287139058) scale(0.4076682444775235)"><path xmlns="http://www.w3.org/2000/svg" d="M100.254 0C44.974 0 0 44.974 0 100.254s44.974 100.254 100.254 100.254c55.28 0 100.254-44.974 100.254-100.254S155.534 0 100.254 0zm0 195.508C47.731 195.508 5 152.777 5 100.254S47.731 5 100.254 5s95.254 42.73 95.254 95.254-42.731 95.254-95.254 95.254z"/></g><g data-name="icon" fill="url(#gradient-19)" data="id:1108971" transform="translate(24.85133257710238, 170.0948685311225) scale(0.5981029944306472)">
  <g transform="translate(0,-952.36218)"><path d="m 54.09222,969.64304 -22.90398,23.0002 c -0.57198,0.5554 -0.0797,1.7376 0.71574,1.7188 l 5.97496,0 0,7.81256 -5.32144,-4.59366 c -0.59645,-0.3723 -0.86147,-0.1535 -1.36926,0.062 L 14.2592,1014.6431 c -0.57197,0.5554 -0.0797,1.7376 0.71575,1.7188 l 2.98748,0 0,17.0003 -8.9624299,0 0,2 9.9582499,0 c 0.11658,-5e-4 0.23303,-0.022 0.34232,-0.062 L 91,1008.2998 l -0.68463,-1.875 -6.62846,2.5 0,-2.5625 0.99582,0 c 0.79539,0.019 1.28772,-1.1634 0.71575,-1.7188 l -2.7074,-2.7189 0,-4.56246 c -5e-5,-0.5236 -0.47443,-0.9999 -0.99582,-1 l -2.98748,0 c -0.52139,1e-4 -0.99578,0.4764 -0.99583,1 l 0,0.375 -2.5518,-1.2812 c -0.45933,-0.2443 -0.68749,0.01 -1.05806,0.1248 l -3.36091,2.6874 0,-4.9063 6.97077,0 c 0.79539,0.019 1.28773,-1.1634 0.71575,-1.7188 l -8.68235,-8.7186 0,-10.5626 c -5e-5,-0.5236 -0.47443,-0.9999 -0.99582,-1 l -5.97496,0 c -0.52139,10e-5 -0.99577,0.4764 -0.99582,1 l 0,2.5625 -6.25503,-6.2813 c -0.71151,-0.4895 -0.80654,-0.2391 -1.4315,0 z m -3.26755,20.719 2.98747,0 0,4.5001 -2.98747,0 z m 4.97913,0 2.98747,0 0,4.5001 -2.98747,0 z m -4.97913,6.5001 2.98747,0 0,5.49996 -2.98747,0 z m 4.97913,0 2.98747,0 0,5.49996 -2.98747,0 z m 18.92068,7.50006 0.99582,0 0,1 -0.99582,0 z m 1.99165,0 0.99582,0 0,1 -0.99582,0 z m -1.99165,2 0.99582,0 0,1 -0.99582,0 z m 1.99165,0 0.99582,0 0,1 -0.99582,0 z m -47.79962,7.0001 1.49374,0 0,3.5 -1.49374,0 z m 3.48539,0 1.49374,0 0,3.5 -1.49374,0 z m -3.48539,5.5001 1.49374,0 0,3.5001 -1.49374,0 z m 3.48539,0 1.49374,0 0,3.5001 -1.49374,0 z" style="text-indent:0;text-transform:none;direction:ltr;block-progression:tb;baseline-shift:baseline;color:#000000;enable-background:accumulate;" fill-opacity="1" stroke="none" marker="none" visibility="visible" display="inline" overflow="visible"/></g>
  </g><g data-name="business_name" fill="url(#gradient-19)" data="id:302" transform="translate(119.14182459005058, 147.26626198237193) scale(1.5153371249439094)"><path d="M10.42,21.12q2.28,0,3.93,0.52t2.6,1.1t1.13,0.76l-1.76,2.82q-0.3-0.26-1.06-0.75t-1.9-0.88t-2.6-0.39q-2.26,0-3.57,0.91t-1.31,2.57q0,1.12,0.69,1.97t1.95,1.55t2.94,1.44q1.38,0.58,2.71,1.32t2.42,1.74t1.74,2.32t0.65,3.04q0,1.7-0.69,3.06t-1.94,2.31t-2.91,1.45t-3.58,0.5q-2.42,0-4.37-0.6t-3.14-1.26t-1.37-0.82l1.86-2.94q0.24,0.2,0.88,0.59t1.58,0.81t2.12,0.71t2.52,0.29q2.68,0,4.06-1.2t1.38-3.08q0-1.44-0.88-2.48t-2.34-1.86t-3.22-1.58q-1.8-0.82-3.3-1.8t-2.41-2.35t-0.91-3.31q0-1.92,1.09-3.38t2.94-2.28t4.07-0.82z M34.18,39.98q0,2.64-0.82,4.54t-2.45,2.93t-4.05,1.03q-1.9,0-3.2-0.52t-2.02-1.15t-0.9-0.93l1.5-2.94q0.22,0.36,0.7,0.89t1.34,0.93t2.16,0.4q1.54,0,2.49-0.71t1.39-1.97t0.44-2.92l0-17.96l3.42,0l0,18.38z M47.1,21.12q2.28,0,3.93,0.52t2.6,1.1t1.13,0.76l-1.76,2.82q-0.3-0.26-1.06-0.75t-1.9-0.88t-2.6-0.39q-2.26,0-3.57,0.91t-1.31,2.57q0,1.12,0.69,1.97t1.95,1.55t2.94,1.44q1.38,0.58,2.71,1.32t2.42,1.74t1.74,2.32t0.65,3.04q0,1.7-0.69,3.06t-1.94,2.31t-2.91,1.45t-3.58,0.5q-2.42,0-4.37-0.6t-3.14-1.26t-1.37-0.82l1.86-2.94q0.24,0.2,0.88,0.59t1.58,0.81t2.12,0.71t2.52,0.29q2.68,0,4.06-1.2t1.38-3.08q0-1.44-0.88-2.48t-2.34-1.86t-3.22-1.58q-1.8-0.82-3.3-1.8t-2.41-2.35t-0.91-3.31q0-1.92,1.09-3.38t2.94-2.28t4.07-0.82z  M86.04,36.3l-12.66,0l0,11.7l-3.38,0l0-26.4l3.38,0l0,11.62l12.66,0l0-11.62l3.38,0l0,26.4l-3.38,0l0-11.7z M102.3,48.48q-2.54,0-4.51-1.14t-3.09-3.09t-1.12-4.41t1.12-4.44t3.09-3.14t4.51-1.16q2.52,0,4.47,1.16t3.05,3.14t1.1,4.44t-1.1,4.41t-3.05,3.09t-4.47,1.14z M102.3,45.5q1.6,0,2.79-0.74t1.85-2.03t0.66-2.91t-0.66-2.92t-1.85-2.06t-2.79-0.76q-1.62,0-2.82,0.76t-1.87,2.06t-0.67,2.92t0.67,2.91t1.87,2.03t2.82,0.74z M134.46,31.1q1.82,0,3.12,0.79t1.99,2.41t0.69,4.14l0,9.56l-3.44,0l0-8.86q0-2.66-0.74-4t-2.7-1.34q-1.04,0-1.99,0.57t-1.56,1.75t-0.61,3.02l0,8.86l-3.24,0l0-8.86q0-2.66-0.92-4t-2.58-1.34q-1.06,0-1.99,0.55t-1.51,1.73t-0.58,3.06l0,8.86l-3.46,0l0-16.42l3.46,0l0,2.52q0.22-0.62,0.95-1.32t1.88-1.19t2.57-0.49q1.48,0,2.48,0.6t1.58,1.47t0.8,1.67q0.28-0.86,1.08-1.73t2.02-1.44t2.7-0.57z M147.24,40.5q0.02,1.48,0.64,2.7t1.85,1.94t3.03,0.72q1.52,0,2.59-0.45t1.75-1.08t0.98-1.13l1.7,2.1q-0.66,0.96-1.61,1.68t-2.31,1.11t-3.32,0.39q-2.64,0-4.57-1.13t-2.97-3.14t-1.04-4.61q0-2.4,0.98-4.33t2.85-3.05t4.51-1.12q2.42,0,4.21,1.01t2.78,2.85t0.99,4.4q0,0.16-0.02,0.57t-0.04,0.57l-12.98,0z M156.96,37.88q-0.02-0.82-0.47-1.8t-1.45-1.68t-2.7-0.7q-1.76,0-2.83,0.68t-1.57,1.65t-0.58,1.85l9.6,0z M170.28,31.1q1.28,0,2.39,0.26t1.92,0.62t1.15,0.64l-1.38,2.2q-0.4-0.36-1.44-0.81t-2.32-0.45q-1.4,0-2.38,0.55t-0.98,1.59t1.01,1.65t2.71,1.01q1.36,0.32,2.55,0.86t1.93,1.49t0.74,2.53q0,1.44-0.6,2.45t-1.62,1.62t-2.28,0.89t-2.56,0.28q-1.52,0-2.74-0.31t-2.05-0.74t-1.21-0.75l1.38-2.48q0.52,0.5,1.71,1.06t2.71,0.56q1.68,0,2.72-0.71t1.04-1.85q0-0.86-0.5-1.38t-1.34-0.84t-1.84-0.56q-0.96-0.22-1.87-0.58t-1.66-0.93t-1.19-1.4t-0.44-1.95q0-1.42,0.9-2.43t2.36-1.55t3.18-0.54z"/></g></svg>